<svg xmlns="http://www.w3.org/2000/svg" width="32" height="32" aria-hidden="true" viewBox="0 0 24 24"><path fill="currentColor" d="M8.953 17.985A2.5 2.5 0 0 1 6.5 20h-2a.5.5 0 0 1-.5-.5v-2a2.5 2.5 0 0 1 2.015-2.453l.012-.343q.03-.87.177-1.704H2.5a.5.5 0 0 1-.464-.686l2-5A.5.5 0 0 1 4.5 7H9q.038 0 .075.006A12.3 12.3 0 0 1 20.59 3.008a.5.5 0 0 1 .4.401 12.32 12.32 0 0 1-3.996 11.518L17 15v4.5a.5.5 0 0 1-.314.464l-5 2A.5.5 0 0 1 11 21.5v-3.705q-.846.148-1.704.178zm-.966-.29-1.682-1.682A1.5 1.5 0 0 0 5 17.5V19h1.5a1.5 1.5 0 0 0 1.487-1.305M12 17.577v3.184l4-1.6v-3.448a12.3 12.3 0 0 1-4 1.864M6.42 12a12.3 12.3 0 0 1 1.87-4H4.84l-1.6 4zm2.28 4.993.561-.02A11.323 11.323 0 0 0 20.066 3.934q-.66-.102-1.33-.125c-6.251-.216-11.494 4.678-11.71 10.93l-.019.561zM14 13a3 3 0 1 1 0-6 3 3 0 0 1 0 6m0-1a2 2 0 1 0 0-4 2 2 0 0 0 0 4"/></svg>