<svg xmlns="http://www.w3.org/2000/svg" fill="none" viewBox="-0.5 -0.5 16 16" id="Gallery-Add--Streamline-Solar" height="24" width="24"><desc>Gallery Add Streamline Icon: https://streamlinehq.com</desc><g id="Line Duotone/Video Audio Sound/Gallery Add"><path id="Vector" stroke="currentColor" stroke-linecap="round" d="m1.25 7.8125625 1.09474375 -0.957875c0.56954375 -0.4983125 1.4279312499999999 -0.46975 1.9630625 0.065375l2.68106875 2.6810625c0.4295 0.4295625 1.1056249999999999 0.48812500000000003 1.602625 0.1388125l0.186375 -0.13093749999999998c0.715125 -0.502625 1.6826875 -0.44437499999999996 2.3324375 0.140375L13.125 11.5625625" stroke-width="0.7"></path><path id="Vector_2" stroke="currentColor" stroke-linecap="round" d="M13.75 7.5c0 2.94625 0 4.4194375 -0.9153125 5.3346875C11.9194375 13.75 10.44625 13.75 7.5 13.75c-2.94628125 0 -4.41941875 0 -5.33470625 -0.9153125C1.25 11.9194375 1.25 10.44625 1.25 7.5c0 -2.94628125 0 -4.41941875 0.91529375 -5.33470625C3.0805812500000003 1.25 4.55371875 1.25 7.5 1.25" stroke-width="0.7"></path><path id="Vector_3" stroke="currentColor" stroke-linecap="round" d="M9.375 3.4375h2.1875m0 0H13.75m-2.1875 0V5.625m0 -2.1875V1.25" stroke-width="0.7"></path></g></svg>
