<svg width="24" height="24" viewBox="0 0 24 24" xmlns="http://www.w3.org/2000/svg"><path style="stroke:#4147d5;stroke-width:1;stroke-dasharray:none;stroke-linecap:butt;stroke-dashoffset:0;stroke-linejoin:miter;stroke-miterlimit:4;fill:#d7e0ff;fill-rule:nonzero;opacity:1" transform="translate(1.99 1.99)scale(1.43)" d="M.832 11.796c.06.565.515 1.02 1.08 1.082.42.047.85.087 1.289.087s.87-.04 1.29-.087a1.23 1.23 0 0 0 1.079-1.082c.044-.417.082-.845.082-1.282 0-.436-.038-.864-.082-1.281A1.23 1.23 0 0 0 4.49 8.15a12 12 0 0 0-1.289-.087c-.44 0-.87.04-1.29.087A1.23 1.23 0 0 0 .833 9.233a12 12 0 0 0-.082 1.281c0 .437.038.865.082 1.282Zm3.799-7.029c.06.565.515 1.02 1.08 1.083.42.046.85.087 1.289.087.44 0 .87-.04 1.29-.087a1.23 1.23 0 0 0 1.079-1.083c.044-.417.082-.845.082-1.281 0-.437-.038-.865-.082-1.282a1.23 1.23 0 0 0-1.08-1.082A12 12 0 0 0 7 1.035c-.44 0-.87.04-1.29.087a1.23 1.23 0 0 0-1.079 1.082 12 12 0 0 0-.082 1.282c0 .436.038.864.082 1.281Zm3.799 7.029c.06.565.515 1.02 1.08 1.082.42.047.85.087 1.289.087.44 0 .87-.04 1.29-.087a1.23 1.23 0 0 0 1.079-1.082c.044-.417.082-.845.082-1.282 0-.436-.038-.864-.082-1.281a1.23 1.23 0 0 0-1.08-1.083c-.42-.046-.85-.087-1.289-.087-.44 0-.87.04-1.29.087A1.23 1.23 0 0 0 8.43 9.233a12 12 0 0 0-.082 1.281c0 .437.038.865.082 1.282Z" stroke-linecap="round"/></svg>