<svg width="24" height="24" viewBox="0 0 24 24" xmlns="http://www.w3.org/2000/svg"><path style="stroke:#000;stroke-width:1;stroke-dasharray:none;stroke-linecap:round;stroke-dashoffset:0;stroke-linejoin:round;stroke-miterlimit:4;fill:none;fill-rule:nonzero;opacity:1" transform="matrix(.83 0 0 .83 2.04 2.04)" d="M16.966 4.787a1.1 1.1 0 0 1 .534.944v4.639L12 13.908 6.5 10.37V5.731a1.1 1.1 0 0 1 .534-.944l4.4-2.64a1.1 1.1 0 0 1 1.132 0ZM12 8.408v5.5" stroke-linecap="round"/><path style="stroke:#000;stroke-width:1;stroke-dasharray:none;stroke-linecap:round;stroke-dashoffset:0;stroke-linejoin:round;stroke-miterlimit:4;fill:none;fill-rule:nonzero;opacity:1" transform="matrix(.83 0 0 .83 2.04 2.04)" d="m17.5 17.208-5.5-3.3 5.5-3.538 5 3.213a1.1 1.1 0 0 1 .5.925v4.062a1.1 1.1 0 0 1-.5.925l-4.4 2.83a1.1 1.1 0 0 1-1.19 0L12 19.17v-5.262m5.5 3.3V22.5M12 13.908v5.262l-4.9 3.155a1.1 1.1 0 0 1-1.19 0l-4.4-2.83A1.1 1.1 0 0 1 1 18.57v-4.062a1.1 1.1 0 0 1 .5-.925l5-3.213zl-5.5 3.3m0 0-5.369-3.221M6.5 17.208V22.5M12 8.408 6.641 5.192m10.718 0L12 8.408m10.869 5.579L17.5 17.208" stroke-linecap="round"/></svg>